<?xml version="1.0" standalone="no"?>
<!DOCTYPE svg PUBLIC "-//W3C//DTD SVG 20010904//EN"
 "http://www.w3.org/TR/2001/REC-SVG-20010904/DTD/svg10.dtd">
<svg version="1.0" xmlns="http://www.w3.org/2000/svg"
 width="512.000000pt" height="512.000000pt" viewBox="0 0 512.000000 512.000000"
 preserveAspectRatio="xMidYMid meet">
<metadata>
Created by potrace 1.14, written by Peter Selinger 2001-2017
</metadata>
<g transform="translate(0.000000,512.000000) scale(0.100000,-0.100000)"
fill="#000000" stroke="none">
<path d="M412 4468 c-9 -9 -12 -398 -12 -1690 0 -1648 0 -1677 19 -1688 13 -6
157 -10 400 -10 l381 0 0 -228 c0 -164 3 -231 12 -240 17 -17 2759 -17 2776 0
9 9 12 245 12 1002 l0 990 373 371 c207 206 380 387 389 406 26 55 30 107 13
160 -14 40 -44 76 -187 218 -144 144 -177 172 -219 186 -50 17 -100 15 -151
-4 -14 -5 -69 -53 -122 -105 l-96 -96 0 118 c0 78 -4 122 -12 130 -9 9 -112
12 -400 12 l-388 0 0 221 c0 133 -4 228 -10 240 -11 19 -37 19 -1388 19 -1059
0 -1381 -3 -1390 -12z"/>
</g>
</svg>
